<?xml version="1.0"?>
<svg xmlns="http://www.w3.org/2000/svg" xmlns:xlink="http://www.w3.org/1999/xlink" version="1.1" id="Layer_1" x="0px" y="0px" viewBox="0 0 504.123 504.123" style="enable-background:new 0 0 504.123 504.123;" xml:space="preserve" width="512px" height="512px" class=""><g><circle style="fill:#FFD05B" cx="252.062" cy="252.062" r="252.062" data-original="#90DFAA" class="active-path" data-old_color="#90DFAA"/><polygon style="fill:#E6E9EE;" points="252.062,66.954 74.043,205.982 430.08,205.982 " data-original="#E6E9EE"/><polygon style="fill:#FFFFFF;" points="128.394,187.077 252.062,89.403 375.729,187.077 " data-original="#FFFFFF"/><rect x="139.028" y="205.982" style="fill:#ACB3BA;" width="226.462" height="147.692" data-original="#ACB3BA"/><rect x="356.037" y="218.978" style="fill:#324A5E;" width="31.114" height="134.695" data-original="#324A5E"/><rect x="345.403" y="205.982" style="fill:#2B3B4E;" width="51.988" height="20.874" data-original="#2B3B4E"/><rect x="116.972" y="218.978" style="fill:#324A5E;" width="31.114" height="134.695" data-original="#324A5E"/><g>
	<rect x="106.732" y="205.982" style="fill:#2B3B4E;" width="51.988" height="20.874" data-original="#2B3B4E"/>
	<rect x="345.403" y="332.8" style="fill:#2B3B4E;" width="51.988" height="20.874" data-original="#2B3B4E"/>
	<rect x="106.732" y="332.8" style="fill:#2B3B4E;" width="51.988" height="20.874" data-original="#2B3B4E"/>
</g><rect x="94.523" y="353.674" style="fill:#E6E9EE;" width="315.077" height="28.357" data-original="#E6E9EE"/><path style="fill:#FFD05B" d="M250.092,179.988v-5.908c-7.483-0.788-14.178-3.938-20.48-9.058l5.908-7.089  c4.726,3.938,9.452,6.302,14.178,7.089v-16.148c-6.302-1.575-10.634-3.545-13.785-5.908c-2.757-2.363-4.332-5.908-4.332-10.634  c0-4.726,1.575-8.665,5.12-11.815c3.151-3.151,7.483-4.726,12.997-5.12v-3.938h5.12v4.332c5.908,0.394,11.815,2.363,17.329,6.302  l-5.514,7.483c-3.545-2.757-7.483-4.332-11.815-4.726v15.36h0.394c6.302,1.575,11.028,3.545,13.785,5.908  c3.151,2.363,4.332,6.302,4.332,11.028c0,4.726-1.575,8.665-5.12,11.815s-7.877,4.726-13.391,5.12v5.908L250.092,179.988  L250.092,179.988z M245.366,129.182c-1.182,1.182-1.969,2.363-1.969,3.938s0.394,2.757,1.575,3.938  c0.788,0.788,2.757,1.969,5.514,2.757v-12.603C248.123,127.212,246.548,128,245.366,129.182z M260.726,161.083  c1.182-1.182,1.969-2.363,1.969-4.332c0-1.575-0.394-3.151-1.575-3.938c-1.182-1.182-3.151-1.969-5.908-2.757v12.997  C257.575,163.052,259.151,162.265,260.726,161.083z" data-original="#FFD05B" class=""/><path style="fill:#324A5E;" d="M290.265,353.674h-76.406v-63.409c0-21.268,17.329-38.203,38.203-38.203l0,0  c21.268,0,38.203,17.329,38.203,38.203V353.674z" data-original="#324A5E"/><circle style="fill:#ACB3BA;" cx="275.298" cy="313.108" r="6.302" data-original="#ACB3BA"/></g> </svg>
